<svg width="83" height="18" viewBox="0 0 83 18" fill="none" xmlns="http://www.w3.org/2000/svg">
<path d="M0.917305 1.622H6.83531C8.49264 1.622 9.79797 2.04 10.7513 2.876C11.7193 3.69733 12.2033 4.87067 12.2033 6.396C12.2033 7.95067 11.7266 9.13133 10.7733 9.938C9.81997 10.73 8.50731 11.126 6.83531 11.126H3.1613V17H0.917305V1.622ZM6.5933 9.256C7.61997 9.256 8.43397 9.04333 9.03531 8.618C9.63664 8.19267 9.93731 7.452 9.93731 6.396C9.93731 5.34 9.63664 4.59933 9.03531 4.174C8.43397 3.734 7.61997 3.514 6.5933 3.514H3.1613V9.256H6.5933ZM17.6017 17.33C16.1791 17.33 15.1011 16.9487 14.3677 16.186C13.6491 15.4233 13.2897 14.404 13.2897 13.128V6.44H15.5117V13.04C15.5117 14.7267 16.3551 15.57 18.0417 15.57C19.5231 15.57 20.6817 14.9027 21.5177 13.568V6.44H23.7397V17H21.5837V15.504C21.0851 16.1347 20.4911 16.5967 19.8017 16.89C19.1271 17.1833 18.3937 17.33 17.6017 17.33ZM33.1471 17.33C32.1938 17.33 31.3651 17.1833 30.6611 16.89C29.9718 16.582 29.3338 16.1053 28.7471 15.46V17H26.5911V0.742H28.8131V7.848C29.2971 7.276 29.9205 6.84333 30.6831 6.55C31.4458 6.25667 32.2671 6.11 33.1471 6.11C34.2031 6.11 35.1491 6.352 35.9851 6.836C36.8358 7.30533 37.4958 7.96533 37.9651 8.816C38.4491 9.66667 38.6911 10.642 38.6911 11.742C38.6911 12.8567 38.4491 13.8393 37.9651 14.69C37.4958 15.526 36.8358 16.1787 35.9851 16.648C35.1491 17.1027 34.2031 17.33 33.1471 17.33ZM32.6411 15.57C33.3598 15.57 34.0051 15.416 34.5771 15.108C35.1638 14.7853 35.6185 14.3307 35.9411 13.744C36.2785 13.1573 36.4471 12.49 36.4471 11.742C36.4471 10.994 36.2785 10.3267 35.9411 9.74C35.6185 9.15333 35.1638 8.69867 34.5771 8.376C34.0051 8.05333 33.3598 7.892 32.6411 7.892C31.7465 7.892 30.9471 8.134 30.2431 8.618C29.5391 9.102 29.0625 9.74733 28.8131 10.554V12.93C29.0918 13.7367 29.5685 14.382 30.2431 14.866C30.9325 15.3353 31.7318 15.57 32.6411 15.57ZM41.1146 0.742H43.3366V17H41.1146V0.742ZM47.5044 4.372C47.1377 4.372 46.8297 4.24733 46.5804 3.998C46.331 3.74867 46.2064 3.44067 46.2064 3.074C46.2064 2.70733 46.331 2.39933 46.5804 2.15C46.8297 1.90067 47.1377 1.776 47.5044 1.776C47.8857 1.776 48.201 1.90067 48.4504 2.15C48.7144 2.39933 48.8464 2.70733 48.8464 3.074C48.8464 3.44067 48.7144 3.74867 48.4504 3.998C48.201 4.24733 47.8857 4.372 47.5044 4.372ZM46.3824 6.44H48.6484V17H46.3824V6.44ZM57.2724 17.33C56.099 17.33 55.0577 17.11 54.1484 16.67C53.239 16.23 52.5277 15.592 52.0144 14.756C51.5157 13.9053 51.2664 12.9007 51.2664 11.742C51.2664 10.5833 51.5157 9.586 52.0144 8.75C52.5277 7.89933 53.239 7.24667 54.1484 6.792C55.0724 6.33733 56.1284 6.11 57.3164 6.11C58.9297 6.11 60.2204 6.42533 61.1884 7.056V8.882C60.235 8.222 59.0177 7.892 57.5364 7.892C56.3337 7.892 55.3584 8.222 54.6104 8.882C53.877 9.52733 53.5104 10.4807 53.5104 11.742C53.5104 13.0033 53.877 13.9567 54.6104 14.602C55.3437 15.2473 56.3044 15.57 57.4924 15.57C58.9737 15.57 60.2497 15.218 61.3204 14.514V16.318C60.807 16.67 60.2204 16.9267 59.5604 17.088C58.915 17.2493 58.1524 17.33 57.2724 17.33ZM67.4142 17.33C66.1382 17.33 65.1115 17.0073 64.3342 16.362C63.5715 15.702 63.1902 14.8147 63.1902 13.7C63.1902 12.5267 63.5569 11.6247 64.2902 10.994C65.0382 10.3487 66.0942 10.026 67.4582 10.026C68.9102 10.026 70.1422 10.3193 71.1542 10.906V10.356C71.1542 9.52 70.8975 8.904 70.3842 8.508C69.8855 8.09733 69.0935 7.892 68.0082 7.892C67.3629 7.892 66.7322 7.958 66.1162 8.09C65.5149 8.20733 64.9722 8.376 64.4882 8.596V6.792C64.9282 6.58667 65.5002 6.42533 66.2042 6.308C66.9082 6.176 67.5902 6.11 68.2502 6.11C69.9955 6.11 71.2862 6.49867 72.1222 7.276C72.9729 8.03867 73.3982 9.102 73.3982 10.466V17H71.3082V15.812C70.8535 16.3107 70.3109 16.692 69.6802 16.956C69.0642 17.2053 68.3089 17.33 67.4142 17.33ZM67.9642 15.636C68.6682 15.636 69.3062 15.4967 69.8782 15.218C70.4502 14.9393 70.8755 14.5507 71.1542 14.052V12.622C70.2009 12.006 69.1375 11.698 67.9642 11.698C67.1135 11.698 66.4755 11.8667 66.0502 12.204C65.6395 12.5267 65.4342 13.0253 65.4342 13.7C65.4342 14.9907 66.2775 15.636 67.9642 15.636ZM76.1556 6.44H78.3116V8.332C78.7516 7.68667 79.3676 7.21 80.1596 6.902C80.9663 6.594 81.8976 6.44 82.9536 6.44V8.178C81.8243 8.178 80.8563 8.36133 80.0496 8.728C79.2429 9.09467 78.6856 9.674 78.3776 10.466V17H76.1556V6.44Z" fill="#81FE88"/>
</svg>
